<svg xmlns="http://www.w3.org/2000/svg" height="350" width="350">
  <defs>
    <filter id="editing-extrusion" x="-100%" y="-100%" width="300%" height="300%">
      <feFlood result="color1" flood-color="#740" />
      <feConvolveMatrix order="3,3" divisor="1" kernelMatrix="1 0 0 0 1 0 0 0 1" in="SourceAlpha" result="extrude" />
      <feComposite in="color1" in2="extrude" result="comp-extrude" operator="in" />
      <feOffset dx="-1.5" dy="0.5" in="comp-extrude" result="offset-extrude" />
      <feMerge>
        <feMergeNode in="offset-extrude" />
        <feMergeNode in="SourceGraphic" />
      </feMerge>
    </filter>
  </defs>
  <g transform="rotate(20 175 175) translate(43 57)">
    <rect height="250" width="250" rx="25" ry="25" fill="#b82" />
    <rect height="250" width="250" rx="25" ry="25" fill="#ec5" x="10" y="-10" />
    <rect height="230" width="230" rx="15" ry="15" fill="#740" x="20" />
    <rect height="224" width="224" rx="14" ry="14" fill="#ec5" x="21" y="5" />
  </g>
  <g transform="rotate(-25) translate(-45 200)">
    <g filter="url(#editing-extrusion)">
      <path d="M4.14-21L4.14-21L12.18-21L12.18-21Q13.44-21 13.84-20.37L13.84-20.37L13.84-20.37Q14.25-19.74 14.38-17.77L14.38-17.77L14.38-17.77Q14.52-15.81 14.52-10.15L14.52-10.15L14.52-10.15Q14.52-4.50 14.28-1.86L14.28-1.86L14.28-1.86Q14.19-1.17 13.66-0.63L13.66-0.63L13.66-0.63Q13.14-0.09 12.27-0.03L12.27-0.03L12.27-0.03Q10.56 0.09 8.31 0.09L8.31 0.09L8.31 0.09Q6.06 0.09 4.05-0.03L4.05-0.03L4.05-0.03Q3.18-0.09 2.65-0.63L2.65-0.63L2.65-0.63Q2.13-1.17 2.04-1.86L2.04-1.86L2.04-1.86Q1.80-4.50 1.80-10.15L1.80-10.15L1.80-10.15Q1.80-15.81 1.93-17.77L1.93-17.77L1.93-17.77Q2.07-19.74 2.48-20.37L2.48-20.37L2.48-20.37Q2.88-21 4.14-21Z" fill="#db4" transform="translate(125 0)" />
      <path d="M21.06-19.59L21.06-19.59L30.87-3L30.87-3Q31.47-2.01 31.47-1.33L31.47-1.33L31.47-1.33Q31.47-0.66 30.93-0.33L30.93-0.33L30.93-0.33Q30.39 0 29.67 0L29.67 0L20.01 0L20.01 0Q18.54 0 18.12-0.54L18.12-0.54L18.12-0.54Q18-0.72 17.79-1.17L17.79-1.17L16.92-3.03L16.92-3.03Q16.53-3.90 15.09-4.02L15.09-4.02L9.42-4.02L9.42-4.02Q8.79-4.02 8.46-3.90L8.46-3.90L8.46-3.90Q8.13-3.78 7.92-3.36L7.92-3.36L6.75-0.93L6.75-0.93Q6.45-0.39 6.09-0.20L6.09-0.20L6.09-0.20Q5.73 0 5.04 0L5.04 0L2.34 0L2.34 0Q1.17 0 1.08-0.84L1.08-0.84L1.08-0.84Q1.05-0.96 1.05-1.08L1.05-1.08L1.05-1.08Q1.05-1.77 1.50-2.40L1.50-2.40L10.89-18.96L10.89-18.96Q12.24-21.30 15.27-21.30L15.27-21.30L17.67-21.30L17.67-21.30Q20.07-21.30 21.06-19.59ZM11.34-11.91L11.34-11.91L9.96-9.18L9.96-9.18Q9.84-8.91 9.84-8.70L9.84-8.70L9.84-8.70Q9.84-7.92 10.59-7.92L10.59-7.92L13.32-7.92L13.32-7.92Q13.95-7.92 14.19-8.23L14.19-8.23L14.19-8.23Q14.43-8.55 14.43-8.79L14.43-8.79L14.43-8.79Q14.43-9.03 14.34-9.27L14.34-9.27L13.20-11.85L13.20-11.85Q12.84-12.63 12.27-12.63L12.27-12.63L12.27-12.63Q11.70-12.63 11.34-11.91ZM46.71-3.87L46.71-3.87L46.71-1.35L46.71-1.35Q46.71-0.06 44.95 0.03L44.95 0.03L44.95 0.03Q43.20 0.12 41.14 0.12L41.14 0.12L41.14 0.12Q39.09 0.12 36.45-0.03L36.45-0.03L36.45-0.03Q35.58-0.09 35.05-0.63L35.05-0.63L35.05-0.63Q34.53-1.17 34.44-1.86L34.44-1.86L34.44-1.86Q34.20-4.50 34.20-10.15L34.20-10.15L34.20-10.15Q34.20-15.81 34.38-18.39L34.38-18.39L34.38-18.39Q34.56-20.97 36.99-21L36.99-21L36.99-21Q39.78-21.06 42.96-21.06L42.96-21.06L42.96-21.06Q46.14-21.06 49.84-20.97L49.84-20.97L49.84-20.97Q53.55-20.88 55.89-18.18L55.89-18.18L55.89-18.18Q58.23-15.48 58.23-12.24L58.23-12.24L58.23-12.24Q58.23-9 56.16-6.90L56.16-6.90L56.16-6.90Q54.09-4.80 50.10-4.80L50.10-4.80L47.76-4.80L47.76-4.80Q47.37-4.80 47.04-4.53L47.04-4.53L47.04-4.53Q46.71-4.26 46.71-3.87ZM46.68-14.73L46.68-14.73L46.74-9.18L46.74-9.18Q46.74-8.61 47.37-8.61L47.37-8.61L47.37-8.61Q49.23-8.61 50.29-9.64L50.29-9.64L50.29-9.64Q51.36-10.68 51.36-12.09L51.36-12.09L51.36-12.09Q51.36-13.50 50.35-14.52L50.35-14.52L50.35-14.52Q49.35-15.54 47.40-15.54L47.40-15.54L47.40-15.54Q46.68-15.54 46.68-14.73ZM73.53-3.87L73.53-3.87L73.53-1.35L73.53-1.35Q73.53-0.06 71.77 0.03L71.77 0.03L71.77 0.03Q70.02 0.12 67.97 0.12L67.97 0.12L67.97 0.12Q65.91 0.12 63.27-0.03L63.27-0.03L63.27-0.03Q62.40-0.09 61.87-0.63L61.87-0.63L61.87-0.63Q61.35-1.17 61.26-1.86L61.26-1.86L61.26-1.86Q61.02-4.50 61.02-10.15L61.02-10.15L61.02-10.15Q61.02-15.81 61.20-18.39L61.20-18.39L61.20-18.39Q61.38-20.97 63.81-21L63.81-21L63.81-21Q66.60-21.06 69.78-21.06L69.78-21.06L69.78-21.06Q72.96-21.06 76.66-20.97L76.66-20.97L76.66-20.97Q80.37-20.88 82.71-18.18L82.71-18.18L82.71-18.18Q85.05-15.48 85.05-12.24L85.05-12.24L85.05-12.24Q85.05-9 82.98-6.90L82.98-6.90L82.98-6.90Q80.91-4.80 76.92-4.80L76.92-4.80L74.58-4.80L74.58-4.80Q74.19-4.80 73.86-4.53L73.86-4.53L73.86-4.53Q73.53-4.26 73.53-3.87ZM73.50-14.73L73.50-14.73L73.56-9.18L73.56-9.18Q73.56-8.61 74.19-8.61L74.19-8.61L74.19-8.61Q76.05-8.61 77.11-9.64L77.11-9.64L77.11-9.64Q78.18-10.68 78.18-12.09L78.18-12.09L78.18-12.09Q78.18-13.50 77.17-14.52L77.17-14.52L77.17-14.52Q76.17-15.54 74.22-15.54L74.22-15.54L74.22-15.54Q73.50-15.54 73.50-14.73ZM100.32-14.73L100.32-14.73L100.38-9.18L100.38-9.18Q100.38-8.61 101.01-8.61L101.01-8.61L101.01-8.61Q102.87-8.61 103.94-9.64L103.94-9.64L103.94-9.64Q105-10.68 105-12.09L105-12.09L105-12.09Q105-13.50 104.00-14.52L104.00-14.52L104.00-14.52Q102.99-15.54 101.04-15.54L101.04-15.54L101.04-15.54Q100.32-15.54 100.32-14.73ZM108.18-5.76L108.18-5.76L108.18-5.76Q108.75-5.16 112.23-1.23L112.23-1.23L112.23-1.23Q112.44-0.96 112.44-0.75L112.44-0.75L112.44-0.75Q112.44 0.03 111.75 0.03L111.75 0.03L111.75 0.03Q110.16 0.06 108.55 0.06L108.55 0.06L108.55 0.06Q106.95 0.06 105.36 0.03L105.36 0.03L105.36 0.03Q104.49 0.03 103.77-0.66L103.77-0.66L101.19-4.56L101.19-4.56Q101.04-4.74 100.83-4.80L100.83-4.80L100.83-4.80Q100.35-4.98 100.35-4.41L100.35-4.41L100.35-1.35L100.35-1.35Q100.35-0.06 98.66 0.03L98.66 0.03L98.66 0.03Q96.96 0.12 94.95 0.12L94.95 0.12L94.95 0.12Q92.94 0.12 90.09-0.03L90.09-0.03L90.09-0.03Q89.22-0.09 88.69-0.63L88.69-0.63L88.69-0.63Q88.17-1.17 88.08-1.86L88.08-1.86L88.08-1.86Q87.84-4.50 87.84-10.15L87.84-10.15L87.84-10.15Q87.84-15.81 88.02-18.39L88.02-18.39L88.02-18.39Q88.20-20.97 90.63-21L90.63-21L90.63-21Q92.91-21.03 96.84-21.03L96.84-21.03L96.84-21.03Q100.77-21.03 103.35-20.97L103.35-20.97L103.35-20.97Q107.07-20.91 109.44-18.21L109.44-18.21L109.44-18.21Q111.81-15.51 111.81-12.12L111.81-12.12L111.81-12.12Q111.81-10.14 110.89-8.46L110.89-8.46L110.89-8.46Q109.98-6.78 108.18-5.76ZM117.63 0L117.63 0Q116.79 0 116.20-0.55L116.20-0.55L116.20-0.55Q115.62-1.11 115.45-2.38L115.45-2.38L115.45-2.38Q115.29-3.66 115.29-10.04L115.29-10.04L115.29-10.04Q115.29-16.41 115.50-18.36L115.50-18.36L115.50-18.36Q115.74-20.88 117.63-20.94L117.63-20.94L117.63-20.94Q119.79-21 135.54-21L135.54-21L135.54-21Q137.31-21 137.31-18.75L137.31-18.75L137.31-18.75Q137.31-16.98 135.75-16.98L135.75-16.98L129.15-16.98L129.15-16.98Q128.52-16.98 128.15-16.56L128.15-16.56L128.15-16.56Q127.77-16.14 127.77-15.48L127.77-15.48L127.77-13.32L127.77-13.32Q127.77-12.42 128.58-12.42L128.58-12.42L134.04-12.42L134.04-12.42Q134.52-12.42 134.78-12.33L134.78-12.33L134.78-12.33Q135.03-12.24 135.24-11.80L135.24-11.80L135.24-11.80Q135.45-11.37 135.45-10.38L135.45-10.38L135.45-10.38Q135.45-9.39 135.10-9.06L135.10-9.06L135.10-9.06Q134.76-8.73 133.98-8.73L133.98-8.73L129.09-8.73L129.09-8.73Q128.34-8.73 128.06-8.36L128.06-8.36L128.06-8.36Q127.77-7.98 127.77-7.20L127.77-7.20L127.77-5.73L127.77-5.73Q127.77-4.44 129-4.44L129-4.44L136.47-4.44L136.47-4.44Q137.01-4.44 137.43-4.13L137.43-4.13L137.43-4.13Q137.85-3.81 137.85-2.75L137.85-2.75L137.85-2.75Q137.85-1.68 137.34-0.84L137.34-0.84L137.34-0.84Q136.83 0 136.14 0L136.14 0L117.63 0ZM151.32 0.60L151.32 0.60L151.32 0.60Q145.92 0.60 142.78-2.15L142.78-2.15L142.78-2.15Q139.65-4.89 139.65-9.90L139.65-9.90L139.65-9.90Q139.65-12.96 140.66-15.27L140.66-15.27L140.66-15.27Q141.66-17.58 143.49-18.96L143.49-18.96L143.49-18.96Q147.12-21.69 153.06-21.69L153.06-21.69L153.06-21.69Q156.90-21.69 160.74-20.64L160.74-20.64L160.74-20.64Q162.21-20.16 162.21-18.27L162.21-18.27L162.21-18.27Q162.21-15.69 160.59-15.69L160.59-15.69L160.59-15.69Q160.32-15.69 158.82-15.93L158.82-15.93L158.82-15.93Q157.32-16.17 156.72-16.17L156.72-16.17L156.72-16.17Q154.59-16.17 153.44-14.68L153.44-14.68L153.44-14.68Q152.28-13.20 152.28-11.14L152.28-11.14L152.28-11.14Q152.28-9.09 153.36-7.53L153.36-7.53L153.36-7.53Q154.44-5.97 156.30-5.91L156.30-5.91L156.30-5.91Q157.56-5.85 160.77-5.85L160.77-5.85L160.77-5.85Q162.33-5.85 162.48-4.38L162.48-4.38L162.48-4.38Q162.57-3.84 162.57-3.28L162.57-3.28L162.57-3.28Q162.57-2.73 162.48-2.16L162.48-2.16L162.48-2.16Q162.30-1.08 160.80-0.58L160.80-0.58L160.80-0.58Q159.30-0.09 156.48 0.26L156.48 0.26L156.48 0.26Q153.66 0.60 151.32 0.60ZM167.73-21L167.73-21L175.77-21L175.77-21Q177.03-21 177.44-20.37L177.44-20.37L177.44-20.37Q177.84-19.74 177.97-17.77L177.97-17.77L177.97-17.77Q178.11-15.81 178.11-10.15L178.11-10.15L178.11-10.15Q178.11-4.50 177.87-1.86L177.87-1.86L177.87-1.86Q177.78-1.17 177.25-0.63L177.25-0.63L177.25-0.63Q176.73-0.09 175.86-0.03L175.86-0.03L175.86-0.03Q174.15 0.09 171.90 0.09L171.90 0.09L171.90 0.09Q169.65 0.09 167.64-0.03L167.64-0.03L167.64-0.03Q166.77-0.09 166.25-0.63L166.25-0.63L166.25-0.63Q165.72-1.17 165.63-1.86L165.63-1.86L165.63-1.86Q165.39-4.50 165.39-10.15L165.39-10.15L165.39-10.15Q165.39-15.81 165.53-17.77L165.53-17.77L165.53-17.77Q165.66-19.74 166.06-20.37L166.06-20.37L166.06-20.37Q166.47-21 167.73-21ZM200.97-19.59L200.97-19.59L210.78-3L210.78-3Q211.38-2.01 211.38-1.33L211.38-1.33L211.38-1.33Q211.38-0.66 210.84-0.33L210.84-0.33L210.84-0.33Q210.30 0 209.58 0L209.58 0L199.92 0L199.92 0Q198.45 0 198.03-0.54L198.03-0.54L198.03-0.54Q197.91-0.72 197.70-1.17L197.70-1.17L196.83-3.03L196.83-3.03Q196.44-3.90 195-4.02L195-4.02L189.33-4.02L189.33-4.02Q188.70-4.02 188.37-3.90L188.37-3.90L188.37-3.90Q188.04-3.78 187.83-3.36L187.83-3.36L186.66-0.93L186.66-0.93Q186.36-0.39 186-0.20L186-0.20L186-0.20Q185.64 0 184.95 0L184.95 0L182.25 0L182.25 0Q181.08 0 180.99-0.84L180.99-0.84L180.99-0.84Q180.96-0.96 180.96-1.08L180.96-1.08L180.96-1.08Q180.96-1.77 181.41-2.40L181.41-2.40L190.80-18.96L190.80-18.96Q192.15-21.30 195.18-21.30L195.18-21.30L197.58-21.30L197.58-21.30Q199.98-21.30 200.97-19.59ZM191.25-11.91L191.25-11.91L189.87-9.18L189.87-9.18Q189.75-8.91 189.75-8.70L189.75-8.70L189.75-8.70Q189.75-7.92 190.50-7.92L190.50-7.92L193.23-7.92L193.23-7.92Q193.86-7.92 194.10-8.23L194.10-8.23L194.10-8.23Q194.34-8.55 194.34-8.79L194.34-8.79L194.34-8.79Q194.34-9.03 194.25-9.27L194.25-9.27L193.11-11.85L193.11-11.85Q192.75-12.63 192.18-12.63L192.18-12.63L192.18-12.63Q191.61-12.63 191.25-11.91ZM231.30-1.83L231.30-1.83L231.30-1.83Q231.27-1.17 230.73-0.61L230.73-0.61L230.73-0.61Q230.19-0.06 229.29 0L229.29 0L229.29 0Q227.58 0.12 225.18 0.12L225.18 0.12L225.18 0.12Q222.78 0.12 220.77 0L220.77 0L220.77 0Q219.87-0.06 219.33-0.61L219.33-0.61L219.33-0.61Q218.79-1.17 218.76-1.83L218.76-1.83L218.76-1.83Q218.67-6.39 218.67-9.62L218.67-9.62L218.67-9.62Q218.67-12.84 218.70-14.34L218.70-14.34L218.70-14.34Q218.70-15.48 217.68-15.48L217.68-15.48L214.98-15.48L214.98-15.48Q214.35-15.48 213.96-15.78L213.96-15.78L213.96-15.78Q213.57-16.08 213.53-16.83L213.53-16.83L213.53-16.83Q213.48-17.58 213.48-18.39L213.48-18.39L213.48-18.39Q213.48-19.20 213.53-19.79L213.53-19.79L213.53-19.79Q213.57-20.37 214.00-20.68L214.00-20.68L214.00-20.68Q214.44-21 214.95-21L214.95-21L214.95-21Q218.85-21.06 225.51-21.06L225.51-21.06L225.51-21.06Q232.17-21.06 235.05-21L235.05-21L235.05-21Q235.56-20.97 236.00-20.67L236.00-20.67L236.00-20.67Q236.43-20.37 236.47-19.79L236.47-19.79L236.47-19.79Q236.52-19.20 236.52-18.42L236.52-18.42L236.52-18.42Q236.52-17.64 236.49-16.92L236.49-16.92L236.49-16.92Q236.40-15.57 235.02-15.57L235.02-15.57L232.32-15.57L232.32-15.57Q231.30-15.57 231.30-14.52L231.30-14.52L231.30-14.52Q231.39-10.74 231.39-7.68L231.39-7.68L231.39-7.68Q231.39-4.62 231.30-1.83ZM241.59 0L241.59 0Q240.75 0 240.16-0.55L240.16-0.55L240.16-0.55Q239.58-1.11 239.41-2.38L239.41-2.38L239.41-2.38Q239.25-3.66 239.25-10.04L239.25-10.04L239.25-10.04Q239.25-16.41 239.46-18.36L239.46-18.36L239.46-18.36Q239.70-20.88 241.59-20.94L241.59-20.94L241.59-20.94Q243.75-21 259.50-21L259.50-21L259.50-21Q261.27-21 261.27-18.75L261.27-18.75L261.27-18.75Q261.27-16.98 259.71-16.98L259.71-16.98L253.11-16.98L253.11-16.98Q252.48-16.98 252.10-16.56L252.10-16.56L252.10-16.56Q251.73-16.14 251.73-15.48L251.73-15.48L251.73-13.32L251.73-13.32Q251.73-12.42 252.54-12.42L252.54-12.42L258-12.42L258-12.42Q258.48-12.42 258.74-12.33L258.74-12.33L258.74-12.33Q258.99-12.24 259.20-11.80L259.20-11.80L259.20-11.80Q259.41-11.37 259.41-10.38L259.41-10.38L259.41-10.38Q259.41-9.39 259.06-9.06L259.06-9.06L259.06-9.06Q258.72-8.73 257.94-8.73L257.94-8.73L253.05-8.73L253.05-8.73Q252.30-8.73 252.01-8.36L252.01-8.36L252.01-8.36Q251.73-7.98 251.73-7.20L251.73-7.20L251.73-5.73L251.73-5.73Q251.73-4.44 252.96-4.44L252.96-4.44L260.43-4.44L260.43-4.44Q260.97-4.44 261.39-4.13L261.39-4.13L261.39-4.13Q261.81-3.81 261.81-2.75L261.81-2.75L261.81-2.75Q261.81-1.68 261.30-0.84L261.30-0.84L261.30-0.84Q260.79 0 260.10 0L260.10 0L241.59 0Z" fill="#db4" transform="translate(0 40)" />
      <path d="M22.71-21L26.61-21L26.61-21Q27.21-21 27.21-20.40L27.21-20.40L27.21-20.40Q27.21-20.01 26.88-19.56L26.88-19.56L20.16-8.91L20.16-8.91Q20.16-6.48 20.01-1.83L20.01-1.83L20.01-1.83Q19.98-1.17 19.44-0.61L19.44-0.61L19.44-0.61Q18.90-0.06 18 0L18 0L18 0Q16.29 0.12 13.89 0.12L13.89 0.12L13.89 0.12Q11.49 0.12 9.48 0L9.48 0L9.48 0Q8.58-0.06 8.04-0.61L8.04-0.61L8.04-0.61Q7.50-1.17 7.47-1.83L7.47-1.83L7.47-1.83Q7.41-4.86 7.41-8.13L7.41-8.13L1.35-18.30L1.35-18.30Q0.90-18.99 0.90-19.44L0.90-19.44L0.90-19.44Q0.90-20.94 2.37-20.94L2.37-20.94L12.63-21L12.63-21Q13.50-21 13.93-20.73L13.93-20.73L13.93-20.73Q14.37-20.46 14.97-19.62L14.97-19.62L16.80-15.69L16.80-15.69Q17.28-15.03 17.59-15.03L17.59-15.03L17.59-15.03Q17.91-15.03 18.36-15.57L18.36-15.57L21.42-20.37L21.42-20.37Q21.93-21 22.71-21L22.71-21ZM44.94 0.60L44.94 0.60L44.94 0.60Q41.31 0.60 38.37-0.34L38.37-0.34L38.37-0.34Q35.43-1.29 33.60-2.88L33.60-2.88L33.60-2.88Q31.77-4.47 30.81-6.43L30.81-6.43L30.81-6.43Q29.85-8.40 29.85-10.53L29.85-10.53L29.85-10.53Q29.85-12.66 30.82-14.63L30.82-14.63L30.82-14.63Q31.80-16.59 33.61-18.18L33.61-18.18L33.61-18.18Q35.43-19.77 38.37-20.73L38.37-20.73L38.37-20.73Q41.31-21.69 44.82-21.69L44.82-21.69L44.82-21.69Q48.33-21.69 51.03-20.82L51.03-20.82L51.03-20.82Q53.73-19.95 55.38-18.45L55.38-18.45L55.38-18.45Q58.74-15.39 58.74-11.19L58.74-11.19L58.74-11.19Q58.74-9.06 57.82-7.02L57.82-7.02L57.82-7.02Q56.91-4.98 55.21-3.31L55.21-3.31L55.21-3.31Q53.52-1.65 50.85-0.58L50.85-0.58L50.85-0.58Q48.18 0.48 44.94 0.60ZM50.88-11.05L50.88-11.05L50.88-11.05Q50.88-12.48 49.86-13.54L49.86-13.54L49.86-13.54Q48.84-14.61 46.75-14.61L46.75-14.61L46.75-14.61Q44.67-14.61 43.44-13.50L43.44-13.50L43.44-13.50Q42.21-12.39 42.21-10.80L42.21-10.80L42.21-10.80Q42.21-9.21 43.50-8.25L43.50-8.25L43.50-8.25Q44.79-7.29 46.60-7.29L46.60-7.29L46.60-7.29Q48.42-7.29 49.65-8.46L49.65-8.46L49.65-8.46Q50.88-9.63 50.88-11.05ZM73.38-17.85L73.38-17.85L73.32-15.12L73.32-9.33L73.32-9.33Q73.32-8.07 74.10-7.38L74.10-7.38L74.10-7.38Q74.88-6.69 75.93-6.69L75.93-6.69L75.93-6.69Q76.98-6.69 77.75-7.38L77.75-7.38L77.75-7.38Q78.51-8.07 78.51-9.33L78.51-9.33L78.51-18.27L78.51-18.27Q78.51-19.68 78.88-20.34L78.88-20.34L78.88-20.34Q79.26-21 80.52-21L80.52-21L83.28-21L83.28-21Q84.24-21 84.60-20.43L84.60-20.43L84.60-20.43Q85.29-19.41 85.29-12.54L85.29-12.54L85.29-12.54Q85.29-10.29 85.23-9.09L85.23-9.09L85.23-9.09Q85.14-6.66 84.10-4.75L84.10-4.75L84.10-4.75Q83.07-2.85 81.45-1.71L81.45-1.71L81.45-1.71Q78.18 0.60 74.04 0.60L74.04 0.60L74.04 0.60Q68.58 0.60 65.01-1.95L65.01-1.95L65.01-1.95Q63.21-3.24 62.17-5.38L62.17-5.38L62.17-5.38Q61.14-7.53 61.11-10.38L61.11-10.38L61.11-10.38Q61.08-11.79 61.08-14.54L61.08-14.54L61.08-14.54Q61.08-17.28 61.16-18.50L61.16-18.50L61.16-18.50Q61.23-19.71 61.63-20.36L61.63-20.36L61.63-20.36Q62.04-21 63.27-21L63.27-21L71.28-21L71.28-21Q72.48-21 72.87-20.37L72.87-20.37L72.87-20.37Q73.38-19.56 73.38-17.85Z" fill="#db4" transform="translate(90 80)" />
    </g>
  </g>
</svg>
