<svg xmlns="http://www.w3.org/2000/svg" viewBox="0 0 350 350">
  <defs>
    <filter id="extrusion" x="-100%" y="-100%" width="300%" height="300%">
      <feFlood result="color1" flood-color="#740" />
      <feConvolveMatrix order="3,3" divisor="1" kernelMatrix="1 0 0 0 1 0 0 0 1" in="SourceAlpha" result="extrude" />
      <feComposite in="color1" in2="extrude" result="comp-extrude" operator="in" />
      <feOffset dx="-1.5" dy="0.5" in="comp-extrude" result="offset-extrude" />
      <feMerge>
        <feMergeNode in="offset-extrude" />
        <feMergeNode in="SourceGraphic" />
      </feMerge>
    </filter>
  </defs>
  <g transform="rotate(20 175 175) translate(43 57)">
    <rect height="250" width="250" rx="25" ry="25" fill="#b82" />
    <rect height="250" width="250" rx="25" ry="25" fill="#ec5" x="10" y="-10" />
    <rect height="230" width="230" rx="15" ry="15" fill="#740" x="20" />
    <rect height="224" width="224" rx="14" ry="14" fill="#ec5" x="21" y="5" />
  </g>
  <g transform="rotate(-25) translate(-45 200)">
    <g filter="url(#extrusion)" fill="#db4">
      <path d="m4.14-21h8.04q1.26 0 1.66 0.63 0.41 0.63 0.54 2.6 0.14 1.96 0.14 7.62 0 5.65-0.24 8.29-0.09 0.69-0.62 1.23-0.52 0.54-1.39 0.6-1.71 0.12-3.96 0.12t-4.26-0.12q-0.87-0.06-1.4-0.6-0.52-0.54-0.61-1.23-0.24-2.64-0.24-8.29 0-5.66 0.13-7.62 0.14-1.97 0.55-2.6 0.4-0.63 1.66-0.63z" transform="translate(125)" />
      <path d="m21.06-19.59 9.81 16.59q0.6 0.99 0.6 1.67 0 0.67-0.54 1t-1.26 0.33h-9.66q-1.47 0-1.89-0.54-0.12-0.18-0.33-0.63l-0.87-1.86q-0.39-0.87-1.83-0.99h-5.67q-0.63 0-0.96 0.12t-0.54 0.54l-1.17 2.43q-0.3 0.54-0.66 0.73-0.36 0.2-1.05 0.2h-2.7q-1.17 0-1.26-0.84-0.03-0.12-0.03-0.24 0-0.69 0.45-1.32l9.39-16.56q1.35-2.34 4.38-2.34h2.4q2.4 0 3.39 1.71zm-9.72 7.68-1.38 2.73q-0.12 0.27-0.12 0.48 0 0.78 0.75 0.78h2.73q0.63 0 0.87-0.31 0.24-0.32 0.24-0.56t-0.09-0.48l-1.14-2.58q-0.36-0.78-0.93-0.78t-0.93 0.72zm35.37 8.04v2.52q0 1.29-1.76 1.38-1.75 0.09-3.81 0.09-2.05 0-4.69-0.15-0.87-0.06-1.4-0.6-0.52-0.54-0.61-1.23-0.24-2.64-0.24-8.29 0-5.66 0.18-8.24t2.61-2.61q2.79-0.06 5.97-0.06t6.88 0.09q3.71 0.09 6.05 2.79t2.34 5.94-2.07 5.34-6.06 2.1h-2.34q-0.39 0-0.72 0.27t-0.33 0.66zm-0.03-10.86 0.06 5.55q0 0.57 0.63 0.57 1.86 0 2.92-1.03 1.07-1.04 1.07-2.45t-1.01-2.43q-1-1.02-2.95-1.02-0.72 0-0.72 0.81zm26.85 10.86v2.52q0 1.29-1.76 1.38-1.75 0.09-3.8 0.09-2.06 0-4.7-0.15-0.87-0.06-1.4-0.6-0.52-0.54-0.61-1.23-0.24-2.64-0.24-8.29 0-5.66 0.18-8.24t2.61-2.61q2.79-0.06 5.97-0.06t6.88 0.09q3.71 0.09 6.05 2.79t2.34 5.94-2.07 5.34-6.06 2.1h-2.34q-0.39 0-0.72 0.27t-0.33 0.66zm-0.03-10.86 0.06 5.55q0 0.57 0.63 0.57 1.86 0 2.92-1.03 1.07-1.04 1.07-2.45t-1.01-2.43q-1-1.02-2.95-1.02-0.72 0-0.72 0.81zm26.82 0 0.06 5.55q0 0.57 0.63 0.57 1.86 0 2.93-1.03 1.06-1.04 1.06-2.45t-1-2.43q-1.01-1.02-2.96-1.02-0.72 0-0.72 0.81zm7.86 8.97q0.57 0.6 4.05 4.53 0.21 0.27 0.21 0.48 0 0.78-0.69 0.78-1.59 0.03-3.2 0.03-1.6 0-3.19-0.03-0.87 0-1.59-0.69l-2.58-3.9q-0.15-0.18-0.36-0.24-0.48-0.18-0.48 0.39v3.06q0 1.29-1.69 1.38-1.7 0.09-3.71 0.09t-4.86-0.15q-0.87-0.06-1.4-0.6-0.52-0.54-0.61-1.23-0.24-2.64-0.24-8.29 0-5.66 0.18-8.24t2.61-2.61q2.28-0.03 6.21-0.03t6.51 0.06q3.72 0.06 6.09 2.76t2.37 6.09q0 1.98-0.92 3.66-0.91 1.68-2.71 2.7zm9.45 5.76q-0.84 0-1.43-0.55-0.58-0.56-0.75-1.83-0.16-1.28-0.16-7.66 0-6.37 0.21-8.32 0.24-2.52 2.13-2.58 2.16-0.06 17.91-0.06 1.77 0 1.77 2.25 0 1.77-1.56 1.77h-6.6q-0.63 0-1 0.42-0.38 0.42-0.38 1.08v2.16q0 0.9 0.81 0.9h5.46q0.48 0 0.74 0.09 0.25 0.09 0.46 0.53 0.21 0.43 0.21 1.42t-0.35 1.32q-0.34 0.33-1.12 0.33h-4.89q-0.75 0-1.03 0.37-0.29 0.38-0.29 1.16v1.47q0 1.29 1.23 1.29h7.47q0.54 0 0.96 0.31 0.42 0.32 0.42 1.38 0 1.07-0.51 1.91t-1.2 0.84h-18.51zm33.69 0.6q-5.4 0-8.54-2.75-3.13-2.74-3.13-7.75 0-3.06 1.01-5.37 1-2.31 2.83-3.69 3.63-2.73 9.57-2.73 3.84 0 7.68 1.05 1.47 0.48 1.47 2.37 0 2.58-1.62 2.58-0.27 0-1.77-0.24t-2.1-0.24q-2.13 0-3.28 1.49-1.16 1.48-1.16 3.54 0 2.05 1.08 3.61t2.94 1.62q1.26 0.06 4.47 0.06 1.56 0 1.71 1.47 0.09 0.54 0.09 1.1 0 0.55-0.09 1.12-0.18 1.08-1.68 1.58-1.5 0.49-4.32 0.84-2.82 0.34-5.16 0.34zm16.41-21.6h8.04q1.26 0 1.67 0.63 0.4 0.63 0.53 2.6 0.14 1.96 0.14 7.62 0 5.65-0.24 8.29-0.09 0.69-0.62 1.23-0.52 0.54-1.39 0.6-1.71 0.12-3.96 0.12t-4.26-0.12q-0.87-0.06-1.39-0.6-0.53-0.54-0.62-1.23-0.24-2.64-0.24-8.29 0-5.66 0.14-7.62 0.13-1.97 0.53-2.6 0.41-0.63 1.67-0.63zm33.24 1.41 9.81 16.59q0.6 0.99 0.6 1.67 0 0.67-0.54 1t-1.26 0.33h-9.66q-1.47 0-1.89-0.54-0.12-0.18-0.33-0.63l-0.87-1.86q-0.39-0.87-1.83-0.99h-5.67q-0.63 0-0.96 0.12t-0.54 0.54l-1.17 2.43q-0.3 0.54-0.66 0.73-0.36 0.2-1.05 0.2h-2.7q-1.17 0-1.26-0.84-0.03-0.12-0.03-0.24 0-0.69 0.45-1.32l9.39-16.56q1.35-2.34 4.38-2.34h2.4q2.4 0 3.39 1.71zm-9.72 7.68-1.38 2.73q-0.12 0.27-0.12 0.48 0 0.78 0.75 0.78h2.73q0.63 0 0.87-0.31 0.24-0.32 0.24-0.56t-0.09-0.48l-1.14-2.58q-0.36-0.78-0.93-0.78t-0.93 0.72zm40.05 10.08q-0.03 0.66-0.57 1.22-0.54 0.55-1.44 0.61-1.71 0.12-4.11 0.12t-4.41-0.12q-0.9-0.06-1.44-0.61-0.54-0.56-0.57-1.22-0.09-4.56-0.09-7.79 0-3.22 0.03-4.72 0-1.14-1.02-1.14h-2.7q-0.63 0-1.02-0.3t-0.43-1.05q-0.05-0.75-0.05-1.56t0.05-1.4q0.04-0.58 0.47-0.89 0.44-0.32 0.95-0.32 3.9-0.06 10.56-0.06t9.54 0.06q0.51 0.03 0.95 0.33 0.43 0.3 0.47 0.88 0.05 0.59 0.05 1.37t-0.03 1.5q-0.09 1.35-1.47 1.35h-2.7q-1.02 0-1.02 1.05 0.09 3.78 0.09 6.84t-0.09 5.85zm10.29 1.83q-0.84 0-1.43-0.55-0.58-0.56-0.75-1.83-0.16-1.28-0.16-7.66 0-6.37 0.21-8.32 0.24-2.52 2.13-2.58 2.16-0.06 17.91-0.06 1.77 0 1.77 2.25 0 1.77-1.56 1.77h-6.6q-0.63 0-1.01 0.42-0.37 0.42-0.37 1.08v2.16q0 0.9 0.81 0.9h5.46q0.48 0 0.74 0.09 0.25 0.09 0.46 0.53 0.21 0.43 0.21 1.42t-0.35 1.32q-0.34 0.33-1.12 0.33h-4.89q-0.75 0-1.04 0.37-0.28 0.38-0.28 1.16v1.47q0 1.29 1.23 1.29h7.47q0.54 0 0.96 0.31 0.42 0.32 0.42 1.38 0 1.07-0.51 1.91t-1.2 0.84h-18.51z" transform="translate(0 40)" />
      <path d="m22.71-21h3.9q0.6 0 0.6 0.6 0 0.39-0.33 0.84l-6.72 10.65q0 2.43-0.15 7.08-0.03 0.66-0.57 1.22-0.54 0.55-1.44 0.61-1.71 0.12-4.11 0.12t-4.41-0.12q-0.9-0.06-1.44-0.61-0.54-0.56-0.57-1.22-0.06-3.03-0.06-6.3l-6.06-10.17q-0.45-0.69-0.45-1.14 0-1.5 1.47-1.5l10.26-0.06q0.87 0 1.3 0.27 0.44 0.27 1.04 1.11l1.83 3.93q0.48 0.66 0.79 0.66 0.32 0 0.77-0.54l3.06-4.8q0.51-0.63 1.29-0.63zm22.23 21.6q-3.63 0-6.57-0.94-2.94-0.95-4.77-2.54t-2.79-3.55q-0.96-1.97-0.96-4.1t0.97-4.1q0.98-1.96 2.79-3.55 1.82-1.59 4.76-2.55t6.45-0.96 6.21 0.87 4.35 2.37q3.36 3.06 3.36 7.26 0 2.13-0.92 4.17-0.91 2.04-2.61 3.71-1.69 1.66-4.36 2.73-2.67 1.06-5.91 1.18zm5.94-11.65q0-1.43-1.02-2.49-1.02-1.07-3.11-1.07-2.08 0-3.31 1.11t-1.23 2.7 1.29 2.55 3.1 0.96q1.82 0 3.05-1.17t1.23-2.59zm22.5-6.8-0.06 2.73v5.79q0 1.26 0.78 1.95t1.83 0.69 1.82-0.69q0.76-0.69 0.76-1.95v-8.94q0-1.41 0.37-2.07 0.38-0.66 1.64-0.66h2.76q0.96 0 1.32 0.57 0.69 1.02 0.69 7.89 0 2.25-0.06 3.45-0.09 2.43-1.13 4.34-1.03 1.9-2.65 3.04-3.27 2.31-7.41 2.31-5.46 0-9.03-2.55-1.8-1.29-2.84-3.43-1.03-2.15-1.06-5-0.03-1.41-0.03-4.16 0-2.74 0.08-3.96 0.07-1.21 0.47-1.86 0.41-0.64 1.64-0.64h8.01q1.2 0 1.59 0.63 0.51 0.81 0.51 2.52z" transform="translate(90 80)" />
    </g>
  </g>
</svg>
